<?xml version="1.0" encoding="utf-8"?>
<!-- Generator: Adobe Illustrator 23.1.0, SVG Export Plug-In . SVG Version: 6.00 Build 0)  -->
<svg version="1.1" id="Layer_1" xmlns="http://www.w3.org/2000/svg" xmlns:xlink="http://www.w3.org/1999/xlink" x="0px" y="0px"
	 viewBox="0 0 2000 618.6" style="enable-background:new 0 0 2000 618.6;" xml:space="preserve">
<style type="text/css">
	.st0{fill:url(#SVGID_1_);}
	.st1{fill:url(#SVGID_2_);}
	.st2{fill:url(#SVGID_3_);}
	.st3{fill:url(#SVGID_4_);}
	.st4{fill:url(#SVGID_5_);}
	.st5{fill:url(#SVGID_6_);}
	.st6{fill:url(#SVGID_7_);}
	.st7{fill:none;}
	.st8{fill:url(#SVGID_8_);}
	.st9{fill:url(#SVGID_9_);}
	.st10{fill:url(#SVGID_10_);}
	.st11{fill:#00ABDE;}
</style>
<g>
	<g>
		<linearGradient id="SVGID_1_" gradientUnits="userSpaceOnUse" x1="323.5673" y1="229.002" x2="323.5673" y2="123.8808">
			<stop  offset="0" style="stop-color:#00ABDE"/>
			<stop  offset="1" style="stop-color:#7CE7FF"/>
		</linearGradient>
		<polygon class="st0" points="342.6,123.9 342.6,190.8 304.5,229 304.5,123.9 		"/>
		<linearGradient id="SVGID_2_" gradientUnits="userSpaceOnUse" x1="479.1763" y1="201.9278" x2="418.1687" y2="307.5962">
			<stop  offset="0" style="stop-color:#00ABDE"/>
			<stop  offset="1" style="stop-color:#7CE7FF"/>
		</linearGradient>
		<polygon class="st1" points="504.4,227.9 442,290.2 388,290.2 395.9,282.3 477.4,200.9 		"/>
		<linearGradient id="SVGID_3_" gradientUnits="userSpaceOnUse" x1="323.5673" y1="389.5696" x2="323.5673" y2="494.6906">
			<stop  offset="0" style="stop-color:#00ABDE"/>
			<stop  offset="1" style="stop-color:#7CE7FF"/>
		</linearGradient>
		<polygon class="st2" points="342.6,389.6 342.6,494.7 304.5,494.7 304.5,427.7 		"/>
		<linearGradient id="SVGID_4_" gradientUnits="userSpaceOnUse" x1="228.6586" y1="476.5834" x2="390.3631" y2="314.8789">
			<stop  offset="0" style="stop-color:#00ABDE"/>
			<stop  offset="1" style="stop-color:#7CE7FF"/>
		</linearGradient>
		<polygon class="st3" points="403.9,328.4 395.9,336.3 350.6,381.7 342.6,389.6 304.5,427.7 242.2,490.1 215.2,463.1 296.6,381.7 
			349.9,328.4 		"/>
		<linearGradient id="SVGID_5_" gradientUnits="userSpaceOnUse" x1="156.2776" y1="404.2024" x2="245.601" y2="314.8789">
			<stop  offset="0" style="stop-color:#00ABDE"/>
			<stop  offset="1" style="stop-color:#7CE7FF"/>
		</linearGradient>
		<polygon class="st4" points="259.1,328.4 251.2,336.3 169.8,417.7 142.8,390.7 205.1,328.4 		"/>
		<linearGradient id="SVGID_6_" gradientUnits="userSpaceOnUse" x1="313.7246" y1="309.2858" x2="138.1624" y2="309.2858">
			<stop  offset="0" style="stop-color:#00ABDE"/>
			<stop  offset="1" style="stop-color:#7CE7FF"/>
		</linearGradient>
		<polygon class="st5" points="313.7,319.2 311.2,328.4 138.2,328.4 138.2,290.2 297.3,290.2 296.3,291.2 292,295.5 287.9,299.6 
			279,308.5 278.2,309.3 278.2,309.3 304.5,316.6 		"/>
		<linearGradient id="SVGID_7_" gradientUnits="userSpaceOnUse" x1="333.3305" y1="309.2858" x2="508.9722" y2="309.2858">
			<stop  offset="0" style="stop-color:#00ABDE"/>
			<stop  offset="1" style="stop-color:#7CE7FF"/>
		</linearGradient>
		<polygon class="st6" points="509,290.2 509,328.4 349.9,328.4 352.5,325.7 357,321.2 369,309.3 368.9,309.3 342.6,302 
			333.3,299.4 335.9,290.2 		"/>
		<path class="st7" d="M368.9,309.3c-3.5,3.5-7.5,7.5-11.9,11.9l-4.5,4.5l-2.7,2.7h0c-0.6,0.6-1.3,1.3-1.9,1.9l-51.4,51.4l7.9-28.8
			l3.7-13.5l3-11l2.5-9.2l-9.2-2.6l-26.3-7.3c0.3-0.3,0.5-0.5,0.8-0.8l8.9-8.9l4.1-4.1l4.3-4.3c0.3-0.3,0.7-0.7,1-1l7.2-7.2
			l29.2-29.2l3.6-3.6l3.2-3.2l2.1-2.1c0.6-0.6,1.1-1.1,1.6-1.6l1.6-1.6l4.7-4.7l-7.9,28.7l-3.8,13.6l-3,11l-2.5,9.2l9.3,2.6
			L368.9,309.3z"/>
		<linearGradient id="SVGID_8_" gradientUnits="userSpaceOnUse" x1="487.3628" y1="407.7125" x2="225.1564" y2="145.5061">
			<stop  offset="0" style="stop-color:#00ABDE"/>
			<stop  offset="1" style="stop-color:#7CE7FF"/>
		</linearGradient>
		<path class="st8" d="M395.9,282.3l-7.9,7.9h-52.2l3-11l3.8-13.6l7.9-28.7L395.9,282.3z M242.2,128.5l-27,27l81.4,81.4l7.9-7.9
			v-38.2L242.2,128.5z M442,328.4h-38.2l-7.9,7.9l81.4,81.4l27-27L442,328.4z"/>
		<linearGradient id="SVGID_9_" gradientUnits="userSpaceOnUse" x1="159.7717" y1="210.8908" x2="421.9781" y2="473.0971">
			<stop  offset="0" style="stop-color:#00ABDE"/>
			<stop  offset="1" style="stop-color:#7CE7FF"/>
		</linearGradient>
		<path class="st9" d="M311.2,328.4l-3,11l-3.7,13.5l-7.9,28.8l-45.4-45.4l7.9-7.9H311.2z M169.8,200.9l-27,27l62.3,62.3h38.2
			l7.9-7.9L169.8,200.9z M350.6,381.7l-7.9,7.9v38.2l62.3,62.3l27-27L350.6,381.7z"/>
		<linearGradient id="SVGID_10_" gradientUnits="userSpaceOnUse" x1="418.4839" y1="141.996" x2="256.7794" y2="303.7005">
			<stop  offset="0" style="stop-color:#00ABDE"/>
			<stop  offset="1" style="stop-color:#7CE7FF"/>
		</linearGradient>
		<path class="st10" d="M432,155.5l-81.4,81.4l-4.7,4.7c-0.5,0.5-1,1-1.6,1.6c-0.5,0.5-1,1-1.6,1.6l-2.1,2.1c-1,1-2.1,2.1-3.2,3.2
			c-1.1,1.1-2.3,2.3-3.6,3.6l-3.8,3.8c-0.9,0.9-1.8,1.8-2.7,2.7L304.5,283l-7.2,7.2h-54l7.9-7.9l45.4-45.4l46.1-46.1l62.3-62.3
			L432,155.5z"/>
	</g>
	<g>
		<path class="st11" d="M699.6,379.8c-20.8,0-41.9-7.3-58.4-22l17.9-21.4c12.4,10.2,25.3,16.7,41.1,16.7c12.4,0,19.8-4.9,19.8-13
			v-0.4c0-7.7-4.7-11.6-27.7-17.5c-27.7-7.1-45.6-14.7-45.6-42v-0.4c0-25,20-41.5,48.1-41.5c20,0,37.1,6.3,51.1,17.5l-15.7,22.8
			c-12.2-8.4-24.2-13.6-35.8-13.6s-17.7,5.3-17.7,12v0.4c0,9,5.9,12,29.7,18.1c27.9,7.3,43.6,17.3,43.6,41.3v0.4
			C750.1,364.5,729.3,379.8,699.6,379.8z"/>
		<path class="st11" d="M839.9,377.9v-58.8c0-14.1-6.7-21.4-18.1-21.4s-18.7,7.3-18.7,21.4v58.8h-29.9V272.5h29.9v14.9
			c6.9-8.8,15.7-16.9,30.8-16.9c22.6,0,35.8,14.9,35.8,39.1v68.2H839.9z"/>
		<path class="st11" d="M947.4,380.2c-32.6,0-56.8-24.2-56.8-54.4v-0.4c0-30.3,24.4-54.8,57.2-54.8c32.6,0,56.8,24.2,56.8,54.4v0.4
			C1004.5,355.7,980.2,380.2,947.4,380.2z M975.1,325.4c0-15.5-11.2-29.1-27.7-29.1c-17.1,0-27.3,13.2-27.3,28.7v0.4
			c0,15.5,11.2,29.1,27.7,29.1c17.1,0,27.3-13.2,27.3-28.7V325.4z"/>
		<path class="st11" d="M1139.5,378.6h-26.9l-20.2-64.6l-20.6,64.6H1045l-32.4-106.1h30.3l16.9,63.9l19.8-64.3h25.7l20,64.4
			l17.3-64.1h29.7L1139.5,378.6z"/>
		<path class="st11" d="M1244.8,326.6h-37.1v51.3h-10.2V240.3h49.9c30.3,0,51.1,15.5,51.1,42v0.4
			C1298.5,311.6,1273.5,326.6,1244.8,326.6z M1288.3,283c0-21.8-16.9-33.2-41.7-33.2h-38.9v67.4h37.7c25.5,0,42.8-13.4,42.8-33.8
			V283z"/>
		<path class="st11" d="M1379.6,286.7c-23.2,0-43.4,17.5-43.4,50.1v41.1h-9.6V277.7h9.6v28.5c7.9-17.9,24.6-30.8,44.4-30.1v10.6
			H1379.6z"/>
		<path class="st11" d="M1444.7,380.2c-29.7,0-51.3-24-51.3-52.1v-0.4c0-28.1,21.8-52.5,51.7-52.5c29.7,0,51.3,24,51.3,52.1v0.4
			C1496.4,355.9,1474.5,380.2,1444.7,380.2z M1485.9,327.8c0-24.2-18.1-43.4-41.3-43.4c-23.8,0-40.9,19.5-40.9,43v0.4
			c0,24.2,18.1,43.4,41.3,43.4c23.8,0,40.9-19.5,40.9-43V327.8z"/>
		<path class="st11" d="M1592.1,377.9l-35.4-44.6l-35.4,44.6h-11.6l41.1-51.1l-39.5-49.1h12l33.8,42.4l33.8-42.4h11.6l-39.5,48.9
			l41.1,51.3H1592.1z"/>
		<path class="st11" d="M1631.4,251.5v-13.2h12v13.2H1631.4z M1632.5,377.9V277.7h9.6v100.2H1632.5z"/>
		<path class="st11" d="M1722.7,371.2c15.5,0,26.1-6.9,34.4-15.7l6.7,5.9c-10.2,11-22.2,18.9-41.5,18.9c-26.3,0-49.1-21-49.1-52.3
			v-0.4c0-29.1,20.4-52.3,47.5-52.3c28.1,0,46,22.8,46,52.5v0.4c0,1.4,0,2-0.2,3.5h-83.1C1685.2,356.6,1703.1,371.2,1722.7,371.2z
			 M1756.3,323c-1.4-20.2-13-38.9-36-38.9c-19.8,0-35.2,16.7-36.9,38.9H1756.3z"/>
		<path class="st11" d="M1827.3,379.8c-14.5,0-30.5-5.9-41.1-14.5l5.7-7.7c11,8.4,23.2,13.2,36,13.2c13.6,0,24.2-7.5,24.2-19.1v-0.4
			c0-11.8-12.6-16.1-26.5-20c-16.3-4.7-34.4-9.6-34.4-27.5v-0.4c0-16.1,13.6-27.7,33-27.7c12,0,25.5,4.3,35.6,11l-5.1,8.1
			c-9.2-6.1-20.2-10-30.8-10c-13.8,0-22.8,7.5-22.8,17.5v0.4c0,11.2,13.6,15.3,27.9,19.5c16.1,4.5,33,10.4,33,28.1v0.4
			C1861.8,368.4,1846.5,379.8,1827.3,379.8z"/>
	</g>
</g>
</svg>
